<svg id="visual" viewBox="0 0 960 540" width="960" height="540" xmlns="http://www.w3.org/2000/svg" xmlns:xlink="http://www.w3.org/1999/xlink" version="1.1"><rect x="0" y="0" width="960" height="540" fill="#FFC107"></rect><path d="M0 459L22.8 436.2C45.7 413.3 91.3 367.7 137 367.3C182.7 367 228.3 412 274 406.2C319.7 400.3 365.3 343.7 411.2 317.8C457 292 503 297 548.8 325.3C594.7 353.7 640.3 405.3 686 416.5C731.7 427.7 777.3 398.3 823 372C868.7 345.7 914.3 322.3 937.2 310.7L960 299L960 541L937.2 541C914.3 541 868.7 541 823 541C777.3 541 731.7 541 686 541C640.3 541 594.7 541 548.8 541C503 541 457 541 411.2 541C365.3 541 319.7 541 274 541C228.3 541 182.7 541 137 541C91.3 541 45.7 541 22.8 541L0 541Z" fill="#ffffff" stroke-linecap="round" stroke-linejoin="miter"></path></svg>